<?xml version="1.0" encoding="utf-8"?>
<!-- Generator: Adobe Illustrator 16.0.0, SVG Export Plug-In . SVG Version: 6.00 Build 0)  -->
<!DOCTYPE svg PUBLIC "-//W3C//DTD SVG 1.1//EN" "http://www.w3.org/Graphics/SVG/1.1/DTD/svg11.dtd">
<svg  version="1.1" xmlns="http://www.w3.org/2000/svg" xmlns:xlink="http://www.w3.org/1999/xlink" x="0px" y="0px" width="500px"
	 height="500px" viewBox="0 0 500 500" enable-background="new 0 0 500 500" xml:space="preserve">
<g id="Shopping_bag_1">
	<g>
		<path fill="#e32727" d="M319.176,221.088c0-68.312-32.665-85.534-69.176-85.534c-36.511,0-69.176,17.223-69.176,85.534
			c0,3.963,0.422,13.943,0.423,13.963l0.006,0c0.532,4.362,4.242,7.744,8.747,7.744c4.869,0,8.818-3.949,8.818-8.819
			c-0.182-3.294-0.238-6.637-0.238-10.022c0-53.132,23.021-69.825,51.419-69.825c28.398,0,51.419,16.693,51.419,69.825
			c0,3.385-0.056,6.728-0.238,10.022c0,4.87,3.949,8.819,8.818,8.819c4.505,0,8.215-3.381,8.747-7.744
			C318.747,235.05,319.176,225.051,319.176,221.088z"/>
		<path fill="#e32727" d="M319.144,217.45h21.805c2.096,0,3.795,1.699,3.795,3.794v123.417c0,15.346-12.44,27.787-27.787,27.787H249
			h-67.957c-15.346,0-27.787-12.44-27.787-27.787V221.244c0-2.095,1.699-3.794,3.794-3.794h23.806c0,0-0.023,4.779,0.297,15.271
			s8.847,10.073,8.847,10.073c9.333-0.843,8.818-8.819,8.818-8.819c-0.515-4.412-0.116-16.525-0.116-16.525H249h52.298l0.042,18.172
			c0,0,1.66,7.371,8.66,7.172c0,0,9.176,0.551,9.176-13.949L319.144,217.45z"/>
	</g>
	<path fill="#e32727" d="M347.743,290.895c0-20.529,0-41.058,0-61.586c0-3.88,1.22-11.515-3.04-13.717
		c-3.613-1.869-8.252-1.142-12.199-1.142c-3.485,0-6.97,0-10.455,0c-0.624-19.297-3.893-39.276-14.787-55.494
		c-8.539-12.711-21.694-20.817-36.469-24.243c-29.494-6.84-63.828,0.415-80.234,27.667c-9.35,15.532-12.158,33.911-12.604,52.07
		c-5.199,0-10.397,0-15.596,0c-5.044,0-12.104-0.213-12.104,6.889c0,8.085,0,16.171,0,24.256c0,29.596,0,59.193,0,88.79
		c0,10.54-0.394,20.884,6.868,29.632c5.975,7.198,14.701,11.431,24.092,11.431c4.126,0,8.252,0,12.378,0c22.133,0,44.267,0,66.4,0
		c15.322,0,30.644,0,45.966,0c3.658,0,7.317,0,10.976,0c10.188,0,19.139-5.056,25.188-13.072c6.468-8.57,5.619-19.128,5.619-29.18
		C347.743,319.095,347.743,304.995,347.743,290.895z M226.489,141.614c14.326-4.313,30.879-4.21,45.31-0.478
		c15.732,4.068,27.766,14.479,34.965,28.93c7.764,15.583,9.341,33.89,9.411,51.022c-0.024,4.091-0.196,8.182-0.36,12.27
		c-0.31,1.536-0.771,2.913-1.44,3.997c-1.855,2.242-5.11,2.846-7.451,1.499c-1.171-0.768-2.002-1.97-2.521-3.483
		c-0.027-0.107-0.046-0.222-0.069-0.333c0.001-0.106,0.002-0.241,0.002-0.422c-0.002-1.14-0.005-2.279-0.008-3.419
		c-0.01-4.582-0.021-9.164-0.031-13.747c0-0.228-0.033-0.449-0.083-0.664c-0.012-0.96-0.037-1.918-0.09-2.873
		c-0.339-6.098-1.146-12.182-2.377-18.162c-3.385-16.445-12.005-32.178-27.619-39.665c-13.106-6.284-29.854-6.582-43.509-1.941
		c-15.764,5.357-25.553,18.822-30.45,34.214c-2.783,8.748-3.873,18.032-4.382,27.163c-0.034,0.616-0.048,1.233-0.074,1.85
		c-0.001,0.026-0.009,0.051-0.01,0.078c-0.005,0.17-0.009,0.341-0.014,0.512c-0.065,1.738-0.106,3.478-0.113,5.218
		c-0.029,2.39-0.027,4.781,0.027,7.17c0.024,1.08,0.099,2.131,0.098,3.125c-0.523,5.702-6.558,7.892-9.781,4.479
		c-0.834-1.153-1.383-2.744-1.734-4.553C182.856,198.197,187.013,153.498,226.489,141.614z M298.115,214.45
		c-32.091,0-64.182,0-96.272,0c0.2-3.444,0.518-6.88,0.989-10.296c2.437-17.691,9.746-35.468,26.861-43.246
		c13.152-5.977,31.056-5.208,43.734,1.536c17.352,9.229,22.855,30.208,24.471,48.328C298.007,211.997,298.07,213.223,298.115,214.45
		z M341.743,258.669c0,27.583,0,55.166,0,82.748c0,4.64-0.263,9.072-2.173,13.444c-3.979,9.103-13.329,14.586-23.088,14.586
		c-12.498,0-24.996,0-37.494,0c-21.988,0-43.977,0-65.965,0c-11.114,0-22.256,0.238-33.367-0.034
		c-12.604-0.309-22.47-11.219-23.366-23.366c-0.171-2.32-0.034-4.699-0.034-7.021c0-28.595,0-57.19,0-85.786
		c0-10.001,0-20.003,0-30.005c0-3.733,2.828-2.786,6.104-2.786c5.148,0,10.296,0,15.443,0c-0.091,3.754-0.215,8.343,0.362,12.582
		c0.026,0.675,0.053,1.348,0.082,2.019c0.012,0.28,0.076,0.561,0.164,0.835c-0.017-0.013-0.034-0.026-0.051-0.039
		c0.348,1.757,1.062,3.33,2.03,4.68c1.793,3.259,4.753,5.407,9.61,5.267c0.392-0.011,0.764-0.042,1.131-0.075
		c0.041-0.002,0.081-0.005,0.122-0.008c0.079-0.008,0.158-0.015,0.236-0.024c0.714-0.066,1.423-0.195,2.118-0.404
		c2.889-0.789,4.801-2.441,6.055-4.614c1.615-2.446,2.067-5.12,2.124-7.89c0.345-4.091,0.016-8.528-0.079-12.329
		c32.156,0,64.312,0,96.467,0c-0.008,0.766-0.02,1.531-0.032,2.296c-0.118,2.848-0.228,5.909-0.032,8.842
		c0.03,1.231,0.078,2.462,0.168,3.69c0.203,2.768,1.407,5.068,3.187,6.81c1.805,2.151,4.504,3.552,8.535,3.706
		c9.993,0.733,11.819-8.759,12.127-17.118c0.155-2.898,0.108-5.76,0.061-8.226c5.179,0,10.359,0,15.538,0
		c3.954,0,4.018,0.515,4.018,4.038C341.743,235.881,341.743,247.275,341.743,258.669z"/>
</g>
<g id="Shopping_bag_2">
</g>
<g id="Shopping_bag_3">
</g>
<g id="Shopping_bag_4">
</g>
<g id="Shopping_bag_5">
</g>
<g id="Work_bag_1">
</g>
<g id="Work_bag_2">
</g>
<g id="Work_bag_3">
</g>
<g id="Work_bag_4">
</g>
<g id="Work_bag_5">
</g>
<g id="School_bag_1">
</g>
<g id="School_bag_2">
</g>
<g id="School_bag_3">
</g>
<g id="School_bag_4_1_">
</g>
<g id="School_bag_5">
</g>
<g id="Girl_bag_1">
</g>
<g id="Girl_bag_2">
</g>
<g id="Girl_bag_3">
</g>
<g id="Girl_bag_4">
</g>
<g id="Girl_bag_5">
</g>
<g id="suitcase_1">
</g>
<g id="suitcase_2">
</g>
<g id="suitcase_3">
</g>
<g id="suitcase_4">
</g>
<g id="suitcase_5">
</g>
</svg>
