<?xml version="1.0" encoding="utf-8"?>
<!-- Generator: Adobe Illustrator 21.0.0, SVG Export Plug-In . SVG Version: 6.00 Build 0)  -->
<svg version="1.1" id="Outline" xmlns="http://www.w3.org/2000/svg" xmlns:xlink="http://www.w3.org/1999/xlink" x="0px" y="0px"
	 viewBox="0 0 32 32" enable-background="new 0 0 32 32" xml:space="preserve">
<g>
	<path fill="#e32727" d="M29,26v-1c0-6.134-4.276-11.277-10-12.637V11c0-1.654-1.346-3-3-3s-3,1.346-3,3v1.363C7.276,13.723,3,18.866,3,25v1
		c-1.654,0-3,1.346-3,3s1.346,3,3,3h26c1.654,0,3-1.346,3-3S30.654,26,29,26z M15,11c0-0.552,0.448-1,1-1s1,0.448,1,1v1.051
		C16.669,12.025,16.338,12,16,12s-0.669,0.025-1,0.051V11z M5,25c0-6.065,4.935-11,11-11s11,4.935,11,11v1H5V25z M29,30H3
		c-0.552,0-1-0.448-1-1s0.448-1,1-1h26c0.552,0,1,0.448,1,1S29.552,30,29,30z"/>
	<path fill="#e32727"  d="M4.626,5.428c0.281,0.113,0.35,0.363,0.366,0.465c0.017,0.104,0.029,0.366-0.208,0.565L3.861,7.234
		C3.438,7.59,3.384,8.221,3.739,8.644C3.938,8.879,4.221,9,4.506,9c0.227,0,0.455-0.077,0.643-0.234l0.923-0.777
		c0.707-0.594,1.041-1.495,0.896-2.41c-0.146-0.912-0.74-1.662-1.593-2.006c-0.281-0.113-0.35-0.363-0.366-0.465
		C4.991,3.004,4.979,2.741,5.216,2.542l0.923-0.776C6.562,1.41,6.616,0.779,6.261,0.356C5.904-0.066,5.274-0.121,4.852,0.234
		L3.929,1.012c-0.707,0.594-1.041,1.495-0.896,2.41C3.179,4.334,3.773,5.084,4.626,5.428z"/>
	<path fill="#e32727"  d="M26.626,5.428c0.281,0.113,0.35,0.363,0.366,0.465c0.017,0.104,0.029,0.366-0.208,0.565l-0.923,0.776
		c-0.423,0.355-0.478,0.986-0.122,1.409C25.938,8.879,26.221,9,26.506,9c0.227,0,0.455-0.077,0.643-0.234l0.923-0.777
		c0.707-0.594,1.041-1.495,0.896-2.41c-0.146-0.912-0.74-1.662-1.593-2.006c-0.281-0.113-0.35-0.363-0.366-0.465
		c-0.017-0.104-0.029-0.366,0.208-0.565l0.923-0.776c0.423-0.355,0.478-0.986,0.122-1.409s-0.986-0.478-1.409-0.122l-0.923,0.777
		c-0.707,0.594-1.041,1.495-0.896,2.41C25.179,4.334,25.773,5.084,26.626,5.428z"/>
</g>
</svg>
