<?xml version="1.0" encoding="utf-8"?>
<!-- Generator: Adobe Illustrator 21.0.0, SVG Export Plug-In . SVG Version: 6.00 Build 0)  -->
<svg version="1.1" id="Outline" xmlns="http://www.w3.org/2000/svg" xmlns:xlink="http://www.w3.org/1999/xlink" x="0px" y="0px"
	 viewBox="0 0 32 32" enable-background="new 0 0 32 32" xml:space="preserve">
<path fill="#e32727"  d="M26,7h-8.847l0.592-4.142C17.815,2.369,18.24,2,18.734,2H24c0.552,0,1-0.448,1-1s-0.448-1-1-1h-5.266
	c-1.483,0-2.76,1.107-2.969,2.576L15.133,7H6C4.897,7,4,7.897,4,9v2c0,1.103,0.897,2,2,2h1.051l0.851,16.157
	C7.985,30.751,9.301,32,10.897,32h10.205c1.596,0,2.912-1.249,2.996-2.842L24.949,13H26c1.103,0,2-0.897,2-2V9
	C28,7.897,27.103,7,26,7z M22.42,23H9.58l-0.158-3h13.155L22.42,23z M21.103,30H10.897c-0.532,0-0.971-0.416-0.999-0.948L9.686,25
	h12.629l-0.213,4.053C22.073,29.584,21.635,30,21.103,30z M22.683,18H9.317l-0.263-5h13.892L22.683,18z M6,11V9h20l0.001,2H6z"/>
</svg>
