<?xml version="1.0" encoding="utf-8"?>
<!-- Generator: Adobe Illustrator 21.0.0, SVG Export Plug-In . SVG Version: 6.00 Build 0)  -->
<svg version="1.1" id="Outline" xmlns="http://www.w3.org/2000/svg" xmlns:xlink="http://www.w3.org/1999/xlink" x="0px" y="0px"
	 viewBox="0 0 32 32" enable-background="new 0 0 32 32" xml:space="preserve">
<path fill="#e32727" d="M31,26h-1.111l-0.719-6.118c0.461-0.135,0.884-0.384,1.206-0.747c0.469-0.529,0.69-1.232,0.604-1.941l-0.521-3.862
	C30.125,10.862,27.995,9,25.504,9h-6.688C18.928,8.686,19,8.352,19,8c0-1.272-0.798-2.354-1.917-2.79
	c0.301-1.548,1.464-2.816,3.043-3.21l0.12-0.03c0.536-0.136,0.86-0.68,0.724-1.215c-0.135-0.535-0.677-0.856-1.214-0.725
	l-0.117,0.03c-2.455,0.613-4.231,2.652-4.568,5.102C13.873,5.556,13,6.672,13,8c0,0.352,0.072,0.686,0.184,1H5.983
	c-2.195,0-4.166,1.47-4.793,3.575l-0.139,0.468c-0.016,0.054-0.027,0.108-0.034,0.164c-0.084,0.695,0.137,1.398,0.606,1.928
	c0.439,0.495,1.058,0.786,1.72,0.842L2.115,26H1c-0.552,0-1,0.447-1,1v1c0,2.206,1.794,4,4,4h24c2.206,0,4-1.794,4-4v-1
	C32,26.448,31.552,26,31,26z M15,8c0-0.552,0.449-1,1-1s1,0.448,1,1s-0.449,1-1,1S15,8.552,15,8z M3,13.508l0.108-0.363
	C3.484,11.882,4.666,11,5.983,11h19.521c1.495,0,2.773,1.117,2.973,2.599l0.52,3.849c0.02,0.166-0.053,0.288-0.117,0.361
	C28.771,17.93,28.61,18,28.437,18H28c-0.551,0-1-0.448-1-1v-0.5c0-0.926-0.373-1.828-1.023-2.477
	c-0.605-0.605-1.41-0.967-2.265-1.017c-0.93-0.057-1.834,0.277-2.538,0.939C20.428,14.648,20,15.638,20,16.66v2.84
	c0,0.398-0.159,0.785-0.437,1.063c-0.259,0.259-0.603,0.413-0.971,0.435c-0.388,0.011-0.749-0.119-1.046-0.399
	C17.199,20.272,17,19.814,17,19.34V17.5c0-0.926-0.373-1.828-1.023-2.477c-0.605-0.605-1.41-0.967-2.265-1.017
	c-0.067-0.004-0.135-0.006-0.203-0.006c-0.86,0-1.683,0.331-2.335,0.945C10.428,15.648,10,16.638,10,17.66V18
	c0,0.267-0.102,0.513-0.307,0.713c-0.236,0.242-0.574,0.339-0.935,0.261C8.326,18.88,8,18.413,8,17.888C8,15.744,6.256,14,4.112,14
	H3.563c-0.173,0-0.334-0.07-0.442-0.191C3.064,13.745,3.001,13.644,3,13.508z M5.303,16.435C5.725,16.782,6,17.3,6,17.888
	c0,1.469,0.982,2.748,2.336,3.041c1.031,0.223,2.074-0.085,2.772-0.803C11.683,19.566,12,18.811,12,18v-0.34
	c0-0.474,0.199-0.932,0.545-1.258c0.297-0.28,0.669-0.412,1.048-0.399c0.367,0.021,0.711,0.176,0.97,0.436
	C14.841,16.715,15,17.102,15,17.5v1.84c0,1.022,0.428,2.012,1.174,2.714c0.652,0.614,1.475,0.946,2.334,0.945
	c0.067,0,0.135-0.002,0.202-0.006c0.856-0.05,1.662-0.411,2.266-1.016C21.627,21.328,22,20.426,22,19.5v-2.84
	c0-0.474,0.199-0.932,0.545-1.258c0.297-0.279,0.669-0.415,1.048-0.399c0.367,0.021,0.711,0.176,0.97,0.436
	C24.841,15.715,25,16.102,25,16.5V17c0,1.359,0.914,2.496,2.155,2.864L27.876,26H4.13L5.303,16.435z M28,30H4c-1.103,0-2-0.897-2-2
	h28C30,29.103,29.103,30,28,30z"/>
</svg>
