<?xml version="1.0" encoding="utf-8"?>
<!-- Generator: Adobe Illustrator 21.0.0, SVG Export Plug-In . SVG Version: 6.00 Build 0)  -->
<svg version="1.1" id="Outline" xmlns="http://www.w3.org/2000/svg" xmlns:xlink="http://www.w3.org/1999/xlink" x="0px" y="0px"
	 viewBox="0 0 32 32" enable-background="new 0 0 32 32" xml:space="preserve">
<path fill="#e32727"  d="M24,7h-1.999V2c0-0.296-0.128-0.562-0.332-0.744C21.236,0.506,20.426,0,19.501,0c-0.41,0-0.817,0.102-1.176,0.293
	L5.53,7.117C5.204,7.292,5,7.7,5,8v21c0,1.654,1.346,3,3,3h16c1.654,0,3-1.346,3-3V10C27,8.346,25.654,7,24,7z M19.267,2.058
	c0.308-0.165,0.733,0.084,0.733,0.442V7h-9.999L19.267,2.058z M7,29V9h4v21H8C7.448,30,7,29.552,7,29z M25,29c0,0.552-0.448,1-1,1
	H13V9h11c0.552,0,1,0.448,1,1V29z"/>
</svg>
