<?xml version="1.0" encoding="utf-8"?>
<!-- Generator: Adobe Illustrator 21.0.0, SVG Export Plug-In . SVG Version: 6.00 Build 0)  -->
<svg version="1.1" id="Outline" xmlns="http://www.w3.org/2000/svg" xmlns:xlink="http://www.w3.org/1999/xlink" x="0px" y="0px"
	 viewBox="0 0 32 32" enable-background="new 0 0 32 32" xml:space="preserve">
<path fill="#e32727"  d="M32,13c0-1.103-0.897-2-2-2h-1.17c-0.596-2.905-2.881-5.235-5.816-5.841C21.617,2.616,18.92,1,16,1
	s-5.617,1.616-7.014,4.159C6.052,5.765,3.766,8.095,3.17,11H2c-1.103,0-2,0.897-2,2c0,5.744,3.248,10.737,8,13.257V28
	c0,1.654,1.346,3,3,3h10c1.654,0,3-1.346,3-3v-1.743C28.752,23.737,32,18.744,32,13z M9.781,7.051
	c0.339-0.044,0.632-0.26,0.776-0.57C11.539,4.366,13.675,3,16,3s4.461,1.366,5.442,3.481c0.145,0.311,0.438,0.526,0.776,0.57
	c2.198,0.29,3.973,1.884,4.562,3.949H5.219C5.809,8.935,7.584,7.341,9.781,7.051z M22,28c0,0.552-0.448,1-1,1H11
	c-0.552,0-1-0.448-1-1v-0.875C11.567,27.681,13.245,28,15,28h2c1.755,0,3.433-0.319,5-0.875V28z M17,26h-2C7.832,26,2,20.168,2,13
	h28C30,20.168,24.168,26,17,26z"/>
</svg>
